<mxfile host="app.diagrams.net" modified="2023-03-27T01:43:42.184Z" agent="Mozilla/5.0 (Macintosh; Intel Mac OS X 10_15_7) AppleWebKit/537.36 (KHTML, like Gecko) Chrome/111.0.0.0 Safari/537.36" version="21.1.1" etag="M7kTCS48vOPHKaoMwZo6" type="github">
  <diagram name="第 1 页" id="NDs0c18dqh_z2_pdOCHg">
    <mxGraphModel>
      <root>
        <mxCell id="0" />
        <mxCell id="1" parent="0" />
      </root>
    </mxGraphModel>
  </diagram>
</mxfile>
